<mxfile host="app.diagrams.net" agent="Mozilla/5.0 (Windows NT 10.0; Win64; x64) AppleWebKit/537.36 (KHTML, like Gecko) Chrome/132.0.0.0 Safari/537.36" version="26.0.14">
  <diagram name="Страница — 1" id="zLqfHkKrL2y-IwMJ8A5e">
    <mxGraphModel dx="2087" dy="1268" grid="0" gridSize="10" guides="1" tooltips="1" connect="1" arrows="1" fold="1" page="0" pageScale="1" pageWidth="827" pageHeight="1169" math="0" shadow="0">
      <root>
        <mxCell id="0" />
        <mxCell id="1" parent="0" />
        <mxCell id="xgkGRnmD0GBrkPqOjQ8u-25" value="" style="rounded=0;whiteSpace=wrap;html=1;" parent="1" vertex="1">
          <mxGeometry x="-232" y="-142.13" width="706" height="378.25" as="geometry" />
        </mxCell>
        <mxCell id="xgkGRnmD0GBrkPqOjQ8u-1" value="" style="rounded=0;whiteSpace=wrap;html=1;" parent="1" vertex="1">
          <mxGeometry x="-208" y="7" width="95" height="95" as="geometry" />
        </mxCell>
        <mxCell id="xgkGRnmD0GBrkPqOjQ8u-2" value="Roles" style="text;strokeColor=none;fillColor=none;html=1;align=center;verticalAlign=middle;whiteSpace=wrap;rounded=0;fontSize=24;" parent="1" vertex="1">
          <mxGeometry x="-232" y="-183" width="60" height="30" as="geometry" />
        </mxCell>
        <mxCell id="xgkGRnmD0GBrkPqOjQ8u-4" value="User" style="shape=umlActor;verticalLabelPosition=bottom;verticalAlign=top;html=1;outlineConnect=0;" parent="1" vertex="1">
          <mxGeometry x="-175.5" y="17" width="30" height="60" as="geometry" />
        </mxCell>
        <mxCell id="xgkGRnmD0GBrkPqOjQ8u-8" value="" style="endArrow=classic;html=1;rounded=0;fontSize=12;startSize=8;endSize=8;curved=1;exitX=1;exitY=0.5;exitDx=0;exitDy=0;entryX=0;entryY=0.5;entryDx=0;entryDy=0;" parent="1" source="xgkGRnmD0GBrkPqOjQ8u-1" target="xgkGRnmD0GBrkPqOjQ8u-9" edge="1">
          <mxGeometry width="50" height="50" relative="1" as="geometry">
            <mxPoint x="33" y="-44" as="sourcePoint" />
            <mxPoint x="-46" y="-12" as="targetPoint" />
          </mxGeometry>
        </mxCell>
        <mxCell id="xgkGRnmD0GBrkPqOjQ8u-9" value="" style="rounded=0;whiteSpace=wrap;html=1;" parent="1" vertex="1">
          <mxGeometry x="-42" y="-113" width="160" height="60" as="geometry" />
        </mxCell>
        <mxCell id="xgkGRnmD0GBrkPqOjQ8u-10" value="" style="rounded=0;whiteSpace=wrap;html=1;" parent="1" vertex="1">
          <mxGeometry x="-43" y="24" width="160" height="60" as="geometry" />
        </mxCell>
        <mxCell id="xgkGRnmD0GBrkPqOjQ8u-12" value="Annotator /&amp;nbsp;Labeller&lt;div&gt;(разметчик данных)&amp;nbsp;&lt;/div&gt;" style="text;html=1;align=center;verticalAlign=middle;whiteSpace=wrap;rounded=0;" parent="1" vertex="1">
          <mxGeometry x="-25.5" y="-98" width="125" height="30" as="geometry" />
        </mxCell>
        <mxCell id="xgkGRnmD0GBrkPqOjQ8u-13" value="" style="rounded=0;whiteSpace=wrap;html=1;" parent="1" vertex="1">
          <mxGeometry x="-42" y="151" width="160" height="60" as="geometry" />
        </mxCell>
        <mxCell id="xgkGRnmD0GBrkPqOjQ8u-14" value="" style="endArrow=classic;html=1;rounded=0;fontSize=12;startSize=8;endSize=8;curved=1;exitX=1;exitY=0.5;exitDx=0;exitDy=0;entryX=0;entryY=0.5;entryDx=0;entryDy=0;" parent="1" source="xgkGRnmD0GBrkPqOjQ8u-1" target="xgkGRnmD0GBrkPqOjQ8u-10" edge="1">
          <mxGeometry width="50" height="50" relative="1" as="geometry">
            <mxPoint x="-96" y="26" as="sourcePoint" />
            <mxPoint x="-32" y="-34" as="targetPoint" />
          </mxGeometry>
        </mxCell>
        <mxCell id="xgkGRnmD0GBrkPqOjQ8u-15" value="Client&lt;div&gt;(базовый пользователь)&lt;/div&gt;" style="text;html=1;align=center;verticalAlign=middle;whiteSpace=wrap;rounded=0;" parent="1" vertex="1">
          <mxGeometry x="-35.25" y="39" width="144.5" height="30" as="geometry" />
        </mxCell>
        <mxCell id="xgkGRnmD0GBrkPqOjQ8u-17" value="Admin / Moderator&lt;div&gt;(админ или модератор платформы)&lt;/div&gt;" style="text;html=1;align=center;verticalAlign=middle;whiteSpace=wrap;rounded=0;" parent="1" vertex="1">
          <mxGeometry x="-34.25" y="166" width="144.5" height="30" as="geometry" />
        </mxCell>
        <mxCell id="xgkGRnmD0GBrkPqOjQ8u-20" value="" style="endArrow=classic;html=1;rounded=0;fontSize=12;startSize=8;endSize=8;curved=1;exitX=1;exitY=0.5;exitDx=0;exitDy=0;entryX=0;entryY=0.5;entryDx=0;entryDy=0;" parent="1" source="xgkGRnmD0GBrkPqOjQ8u-1" target="xgkGRnmD0GBrkPqOjQ8u-13" edge="1">
          <mxGeometry width="50" height="50" relative="1" as="geometry">
            <mxPoint x="-88" y="33" as="sourcePoint" />
            <mxPoint x="-33" y="33" as="targetPoint" />
          </mxGeometry>
        </mxCell>
        <mxCell id="xgkGRnmD0GBrkPqOjQ8u-21" value="- Делает разметку картографических данных&lt;div&gt;- Делает предложения и заявки по редактированию данных&lt;/div&gt;&lt;div&gt;- Получает за свою работу виртуальную криптовалюту и токены на свой счет&lt;/div&gt;" style="text;html=1;align=left;verticalAlign=middle;whiteSpace=wrap;rounded=0;" parent="1" vertex="1">
          <mxGeometry x="135" y="-127" width="278" height="88" as="geometry" />
        </mxCell>
        <mxCell id="xgkGRnmD0GBrkPqOjQ8u-22" value="- Пользует услугами платформы для поиска и картографических анализа данных в форме API и визуальной площадки&lt;div&gt;&lt;span style=&quot;background-color: transparent; color: light-dark(rgb(0, 0, 0), rgb(255, 255, 255));&quot;&gt;- Выплачивает определенную сумму за пользование услугами платформы в форме&amp;nbsp;&lt;/span&gt;&lt;span style=&quot;background-color: transparent;&quot;&gt;subscription или credit систем (конвертация фиатной валюты в другие формы внутри платформы, помесячный срок пользования, и другие ограничения)&lt;/span&gt;&lt;/div&gt;" style="text;html=1;align=left;verticalAlign=middle;whiteSpace=wrap;rounded=0;" parent="1" vertex="1">
          <mxGeometry x="135" y="-10.75" width="326" height="130.5" as="geometry" />
        </mxCell>
        <mxCell id="xgkGRnmD0GBrkPqOjQ8u-23" value="- Определяет условия пользования платформой&lt;div&gt;- Производит рассмотрения заявок от разметчиков и делает выплаты по ним&lt;/div&gt;&lt;div&gt;- Может регулировать саму платформу: данные внутри нее и т.д.&lt;/div&gt;" style="text;html=1;align=left;verticalAlign=middle;whiteSpace=wrap;rounded=0;" parent="1" vertex="1">
          <mxGeometry x="135" y="137" width="278" height="88" as="geometry" />
        </mxCell>
        <mxCell id="xgkGRnmD0GBrkPqOjQ8u-42" value="" style="rounded=0;whiteSpace=wrap;html=1;" parent="1" vertex="1">
          <mxGeometry x="-232" y="328" width="1468" height="225" as="geometry" />
        </mxCell>
        <mxCell id="xgkGRnmD0GBrkPqOjQ8u-44" value="Use-case and user-flow" style="text;strokeColor=none;fillColor=none;html=1;align=center;verticalAlign=middle;whiteSpace=wrap;rounded=0;fontSize=24;" parent="1" vertex="1">
          <mxGeometry x="-232" y="290" width="263" height="30" as="geometry" />
        </mxCell>
        <mxCell id="xgkGRnmD0GBrkPqOjQ8u-74" value="" style="rounded=0;whiteSpace=wrap;html=1;" parent="1" vertex="1">
          <mxGeometry x="528" y="-142.13" width="706" height="378.25" as="geometry" />
        </mxCell>
        <mxCell id="xgkGRnmD0GBrkPqOjQ8u-76" value="Technical architecture and design&amp;nbsp;" style="text;strokeColor=none;fillColor=none;html=1;align=left;verticalAlign=middle;whiteSpace=wrap;rounded=0;fontSize=24;" parent="1" vertex="1">
          <mxGeometry x="528" y="-196" width="271" height="30" as="geometry" />
        </mxCell>
        <mxCell id="xgkGRnmD0GBrkPqOjQ8u-91" value="" style="rounded=0;whiteSpace=wrap;html=1;" parent="1" vertex="1">
          <mxGeometry x="887" y="16.05000000000001" width="160" height="60" as="geometry" />
        </mxCell>
        <mxCell id="xgkGRnmD0GBrkPqOjQ8u-92" value="Nomatim OSM" style="text;html=1;align=center;verticalAlign=middle;whiteSpace=wrap;rounded=0;" parent="1" vertex="1">
          <mxGeometry x="904.5" y="31.05000000000001" width="125" height="30" as="geometry" />
        </mxCell>
        <mxCell id="xgkGRnmD0GBrkPqOjQ8u-93" value="" style="rounded=0;whiteSpace=wrap;html=1;" parent="1" vertex="1">
          <mxGeometry x="887" y="-59.81999999999999" width="160" height="60" as="geometry" />
        </mxCell>
        <mxCell id="xgkGRnmD0GBrkPqOjQ8u-94" value="Database:&amp;nbsp;&lt;span style=&quot;background-color: transparent; color: light-dark(rgb(0, 0, 0), rgb(255, 255, 255));&quot;&gt;Postgres + (PostGIS + PGvector plugins)&lt;/span&gt;" style="text;html=1;align=center;verticalAlign=middle;whiteSpace=wrap;rounded=0;" parent="1" vertex="1">
          <mxGeometry x="899" y="-52.31999999999999" width="136" height="45" as="geometry" />
        </mxCell>
        <mxCell id="xgkGRnmD0GBrkPqOjQ8u-95" value="" style="rounded=0;whiteSpace=wrap;html=1;" parent="1" vertex="1">
          <mxGeometry x="715" y="-59.81999999999999" width="160" height="60" as="geometry" />
        </mxCell>
        <mxCell id="xgkGRnmD0GBrkPqOjQ8u-98" value="" style="rounded=0;whiteSpace=wrap;html=1;" parent="1" vertex="1">
          <mxGeometry x="887" y="93.80000000000001" width="160" height="60" as="geometry" />
        </mxCell>
        <mxCell id="xgkGRnmD0GBrkPqOjQ8u-99" value="Local File Storage" style="text;html=1;align=center;verticalAlign=middle;whiteSpace=wrap;rounded=0;" parent="1" vertex="1">
          <mxGeometry x="903.75" y="108.80000000000001" width="126.5" height="30" as="geometry" />
        </mxCell>
        <mxCell id="xgkGRnmD0GBrkPqOjQ8u-100" value="Backend API (Python)" style="text;html=1;align=center;verticalAlign=middle;whiteSpace=wrap;rounded=0;" parent="1" vertex="1">
          <mxGeometry x="731.75" y="-44.81999999999999" width="126.5" height="30" as="geometry" />
        </mxCell>
        <mxCell id="xgkGRnmD0GBrkPqOjQ8u-101" value="" style="rounded=0;whiteSpace=wrap;html=1;" parent="1" vertex="1">
          <mxGeometry x="715" y="16.05000000000001" width="160" height="60" as="geometry" />
        </mxCell>
        <mxCell id="xgkGRnmD0GBrkPqOjQ8u-102" value="Fronend UI (Streamlit)" style="text;html=1;align=center;verticalAlign=middle;whiteSpace=wrap;rounded=0;" parent="1" vertex="1">
          <mxGeometry x="731.75" y="31.05000000000001" width="126.5" height="30" as="geometry" />
        </mxCell>
        <mxCell id="xgkGRnmD0GBrkPqOjQ8u-104" value="" style="rounded=0;whiteSpace=wrap;html=1;" parent="1" vertex="1">
          <mxGeometry x="715" y="93.80000000000001" width="160" height="60" as="geometry" />
        </mxCell>
        <mxCell id="xgkGRnmD0GBrkPqOjQ8u-105" value="llama-cpp-server" style="text;html=1;align=center;verticalAlign=middle;whiteSpace=wrap;rounded=0;" parent="1" vertex="1">
          <mxGeometry x="732.5" y="108.80000000000001" width="125" height="30" as="geometry" />
        </mxCell>
        <mxCell id="j_D9FWfhNYfgHeY-m52j-1" value="&lt;div style=&quot;color: #abb2bf;background-color: #282c34;font-family: Consolas, &#39;Courier New&#39;, monospace;font-weight: normal;font-size: 14px;line-height: 19px;white-space: pre;&quot;&gt;&lt;div&gt;&lt;span style=&quot;color: #abb2bf;&quot;&gt;Details of implementation:&lt;/span&gt;&lt;/div&gt;&lt;div&gt;&lt;span style=&quot;color: #abb2bf;&quot;&gt;1.&lt;/span&gt;&lt;span style=&quot;color: #abb2bf;&quot;&gt; This task was combined with Blockchain Course, therefore it consists some elements like &quot;Smart Contracts&quot;, &quot;Tokens as rewarding currency&quot;, and so on.&lt;/span&gt;&lt;/div&gt;&lt;div&gt;&lt;span style=&quot;color: #abb2bf;&quot;&gt;2.&lt;/span&gt;&lt;span style=&quot;color: #abb2bf;&quot;&gt; Логическая и структурная схема приложения&lt;/span&gt;&lt;/div&gt;&lt;div&gt;&lt;span style=&quot;color: #abb2bf;&quot;&gt;3.&lt;/span&gt;&lt;span style=&quot;color: #abb2bf;&quot;&gt; детальное пошаговое объяснение приложения&lt;/span&gt;&lt;/div&gt;&lt;div&gt;&lt;span style=&quot;color: #abb2bf;&quot;&gt;4.&lt;/span&gt;&lt;span style=&quot;color: #abb2bf;&quot;&gt; что где и почему&lt;/span&gt;&lt;/div&gt;&lt;div&gt;&lt;span style=&quot;color: #abb2bf;&quot;&gt;5.&lt;/span&gt;&lt;span style=&quot;color: #abb2bf;&quot;&gt; Пояснение результатов и потенциал решения и как его можно развивать&lt;/span&gt;&lt;/div&gt;&lt;div&gt;&lt;span style=&quot;color: #abb2bf;&quot;&gt;Генерация sql, разметка данных и получение награды за это, улучшение базы данных и моделей и т.д.&lt;/span&gt;&lt;/div&gt;&lt;br&gt;&lt;/div&gt;" style="text;whiteSpace=wrap;html=1;" parent="1" vertex="1">
          <mxGeometry x="-175.5" y="359" width="463" height="172" as="geometry" />
        </mxCell>
        <mxCell id="iq39xllaPWH8y2QqXwog-23" value="Technical architecture and design&amp;nbsp;" style="text;strokeColor=none;fillColor=none;html=1;align=left;verticalAlign=middle;whiteSpace=wrap;rounded=0;fontSize=24;" vertex="1" parent="1">
          <mxGeometry x="538" y="-186" width="271" height="30" as="geometry" />
        </mxCell>
        <mxCell id="iq39xllaPWH8y2QqXwog-47" value="" style="group" vertex="1" connectable="0" parent="1">
          <mxGeometry x="1280" y="-166" width="1153" height="438" as="geometry" />
        </mxCell>
        <mxCell id="iq39xllaPWH8y2QqXwog-22" value="" style="rounded=0;whiteSpace=wrap;html=1;" vertex="1" parent="iq39xllaPWH8y2QqXwog-47">
          <mxGeometry y="35" width="1153" height="403" as="geometry" />
        </mxCell>
        <mxCell id="iq39xllaPWH8y2QqXwog-1" value="" style="rounded=0;whiteSpace=wrap;html=1;" vertex="1" parent="iq39xllaPWH8y2QqXwog-47">
          <mxGeometry x="10" y="209.87" width="160" height="60" as="geometry" />
        </mxCell>
        <mxCell id="iq39xllaPWH8y2QqXwog-2" value="Source of data&lt;div&gt;(video, images, audio, text, etc.)&lt;/div&gt;" style="text;html=1;align=center;verticalAlign=middle;whiteSpace=wrap;rounded=0;" vertex="1" parent="iq39xllaPWH8y2QqXwog-47">
          <mxGeometry x="26.5" y="224.87" width="125" height="30" as="geometry" />
        </mxCell>
        <mxCell id="iq39xllaPWH8y2QqXwog-3" value="Data collection&lt;div&gt;and&amp;nbsp;&lt;span style=&quot;background-color: transparent; color: light-dark(rgb(0, 0, 0), rgb(255, 255, 255));&quot;&gt;management&lt;/span&gt;&lt;/div&gt;" style="rounded=0;whiteSpace=wrap;html=1;" vertex="1" parent="iq39xllaPWH8y2QqXwog-47">
          <mxGeometry x="205" y="209.87" width="160" height="60" as="geometry" />
        </mxCell>
        <mxCell id="iq39xllaPWH8y2QqXwog-4" value="" style="endArrow=classic;html=1;rounded=0;exitX=1;exitY=0.5;exitDx=0;exitDy=0;entryX=0;entryY=0.5;entryDx=0;entryDy=0;" edge="1" parent="iq39xllaPWH8y2QqXwog-47" source="iq39xllaPWH8y2QqXwog-1" target="iq39xllaPWH8y2QqXwog-3">
          <mxGeometry width="50" height="50" relative="1" as="geometry">
            <mxPoint x="349" y="330" as="sourcePoint" />
            <mxPoint x="399" y="280" as="targetPoint" />
          </mxGeometry>
        </mxCell>
        <mxCell id="iq39xllaPWH8y2QqXwog-6" value="Data Storage&lt;div&gt;File Storage&lt;/div&gt;" style="rounded=0;whiteSpace=wrap;html=1;" vertex="1" parent="iq39xllaPWH8y2QqXwog-47">
          <mxGeometry x="401" y="209.87" width="160" height="60" as="geometry" />
        </mxCell>
        <mxCell id="iq39xllaPWH8y2QqXwog-7" value="" style="endArrow=classic;html=1;rounded=0;exitX=1;exitY=0.5;exitDx=0;exitDy=0;entryX=0;entryY=0.5;entryDx=0;entryDy=0;" edge="1" parent="iq39xllaPWH8y2QqXwog-47" source="iq39xllaPWH8y2QqXwog-3" target="iq39xllaPWH8y2QqXwog-6">
          <mxGeometry width="50" height="50" relative="1" as="geometry">
            <mxPoint x="349" y="330" as="sourcePoint" />
            <mxPoint x="399" y="280" as="targetPoint" />
          </mxGeometry>
        </mxCell>
        <mxCell id="iq39xllaPWH8y2QqXwog-8" value="" style="shape=cylinder3;whiteSpace=wrap;html=1;boundedLbl=1;backgroundOutline=1;size=15;" vertex="1" parent="iq39xllaPWH8y2QqXwog-47">
          <mxGeometry x="414" y="284" width="60" height="80" as="geometry" />
        </mxCell>
        <mxCell id="iq39xllaPWH8y2QqXwog-10" value="S3 / buckets" style="text;html=1;align=center;verticalAlign=middle;whiteSpace=wrap;rounded=0;" vertex="1" parent="iq39xllaPWH8y2QqXwog-47">
          <mxGeometry x="428.5" y="320" width="31" height="30" as="geometry" />
        </mxCell>
        <mxCell id="iq39xllaPWH8y2QqXwog-11" value="" style="shape=cylinder3;whiteSpace=wrap;html=1;boundedLbl=1;backgroundOutline=1;size=15;" vertex="1" parent="iq39xllaPWH8y2QqXwog-47">
          <mxGeometry x="486" y="284" width="60" height="80" as="geometry" />
        </mxCell>
        <mxCell id="iq39xllaPWH8y2QqXwog-12" value="&lt;div&gt;SQL&lt;/div&gt;&lt;div&gt;Database&lt;/div&gt;" style="text;html=1;align=center;verticalAlign=middle;whiteSpace=wrap;rounded=0;" vertex="1" parent="iq39xllaPWH8y2QqXwog-47">
          <mxGeometry x="487" y="320" width="59" height="30" as="geometry" />
        </mxCell>
        <mxCell id="iq39xllaPWH8y2QqXwog-15" value="&lt;span style=&quot;text-wrap-mode: wrap;&quot;&gt;Moderator / Manager&lt;/span&gt;" style="shape=umlActor;verticalLabelPosition=bottom;verticalAlign=top;html=1;outlineConnect=0;" vertex="1" parent="iq39xllaPWH8y2QqXwog-47">
          <mxGeometry x="617.5" y="56" width="30" height="60" as="geometry" />
        </mxCell>
        <mxCell id="iq39xllaPWH8y2QqXwog-16" value="Labeling service / tool" style="rounded=0;whiteSpace=wrap;html=1;" vertex="1" parent="iq39xllaPWH8y2QqXwog-47">
          <mxGeometry x="595" y="209.87" width="160" height="60" as="geometry" />
        </mxCell>
        <mxCell id="iq39xllaPWH8y2QqXwog-17" value="" style="endArrow=classic;html=1;rounded=0;exitX=1;exitY=0.5;exitDx=0;exitDy=0;entryX=0;entryY=0.5;entryDx=0;entryDy=0;" edge="1" parent="iq39xllaPWH8y2QqXwog-47" source="iq39xllaPWH8y2QqXwog-6" target="iq39xllaPWH8y2QqXwog-16">
          <mxGeometry width="50" height="50" relative="1" as="geometry">
            <mxPoint x="375" y="250" as="sourcePoint" />
            <mxPoint x="411" y="250" as="targetPoint" />
          </mxGeometry>
        </mxCell>
        <mxCell id="iq39xllaPWH8y2QqXwog-18" value="&lt;span style=&quot;text-wrap-mode: wrap;&quot;&gt;Annotator /&amp;nbsp;Labeller&lt;/span&gt;&lt;div style=&quot;text-wrap-mode: wrap;&quot;&gt;(разметчик данных)&lt;/div&gt;&lt;div style=&quot;text-wrap-mode: wrap;&quot;&gt;&amp;nbsp;&lt;/div&gt;" style="shape=umlActor;verticalLabelPosition=bottom;verticalAlign=top;html=1;outlineConnect=0;" vertex="1" parent="iq39xllaPWH8y2QqXwog-47">
          <mxGeometry x="696" y="56" width="30" height="60" as="geometry" />
        </mxCell>
        <mxCell id="iq39xllaPWH8y2QqXwog-20" value="" style="endArrow=classic;html=1;rounded=0;entryX=0.5;entryY=0;entryDx=0;entryDy=0;" edge="1" parent="iq39xllaPWH8y2QqXwog-47" target="iq39xllaPWH8y2QqXwog-16">
          <mxGeometry width="50" height="50" relative="1" as="geometry">
            <mxPoint x="631" y="157" as="sourcePoint" />
            <mxPoint x="491" y="201" as="targetPoint" />
          </mxGeometry>
        </mxCell>
        <mxCell id="iq39xllaPWH8y2QqXwog-21" value="" style="endArrow=classic;html=1;rounded=0;entryX=0.5;entryY=0;entryDx=0;entryDy=0;" edge="1" parent="iq39xllaPWH8y2QqXwog-47" target="iq39xllaPWH8y2QqXwog-16">
          <mxGeometry width="50" height="50" relative="1" as="geometry">
            <mxPoint x="691" y="197" as="sourcePoint" />
            <mxPoint x="685" y="220" as="targetPoint" />
          </mxGeometry>
        </mxCell>
        <mxCell id="iq39xllaPWH8y2QqXwog-24" value="Pipeline" style="text;strokeColor=none;fillColor=none;html=1;align=left;verticalAlign=middle;whiteSpace=wrap;rounded=0;fontSize=24;" vertex="1" parent="iq39xllaPWH8y2QqXwog-47">
          <mxGeometry width="271" height="30" as="geometry" />
        </mxCell>
        <mxCell id="iq39xllaPWH8y2QqXwog-25" value="Label storage" style="rounded=0;whiteSpace=wrap;html=1;" vertex="1" parent="iq39xllaPWH8y2QqXwog-47">
          <mxGeometry x="787" y="209.87" width="160" height="60" as="geometry" />
        </mxCell>
        <mxCell id="iq39xllaPWH8y2QqXwog-26" value="" style="endArrow=classic;html=1;rounded=0;exitX=1;exitY=0.5;exitDx=0;exitDy=0;entryX=0;entryY=0.5;entryDx=0;entryDy=0;" edge="1" parent="iq39xllaPWH8y2QqXwog-47" source="iq39xllaPWH8y2QqXwog-16" target="iq39xllaPWH8y2QqXwog-25">
          <mxGeometry width="50" height="50" relative="1" as="geometry">
            <mxPoint x="571" y="250" as="sourcePoint" />
            <mxPoint x="605" y="250" as="targetPoint" />
          </mxGeometry>
        </mxCell>
        <mxCell id="iq39xllaPWH8y2QqXwog-27" value="" style="shape=cylinder3;whiteSpace=wrap;html=1;boundedLbl=1;backgroundOutline=1;size=15;" vertex="1" parent="iq39xllaPWH8y2QqXwog-47">
          <mxGeometry x="837" y="284" width="60" height="80" as="geometry" />
        </mxCell>
        <mxCell id="iq39xllaPWH8y2QqXwog-28" value="NoSQL&lt;br&gt;&lt;div&gt;Database&lt;/div&gt;" style="text;html=1;align=center;verticalAlign=middle;whiteSpace=wrap;rounded=0;" vertex="1" parent="iq39xllaPWH8y2QqXwog-47">
          <mxGeometry x="838" y="320" width="59" height="30" as="geometry" />
        </mxCell>
        <mxCell id="iq39xllaPWH8y2QqXwog-29" value="Model train, release, inference, etc." style="rounded=0;whiteSpace=wrap;html=1;" vertex="1" parent="iq39xllaPWH8y2QqXwog-47">
          <mxGeometry x="979" y="209.87" width="160" height="60" as="geometry" />
        </mxCell>
        <mxCell id="iq39xllaPWH8y2QqXwog-30" value="" style="endArrow=classic;html=1;rounded=0;exitX=1;exitY=0.5;exitDx=0;exitDy=0;entryX=0;entryY=0.5;entryDx=0;entryDy=0;" edge="1" parent="iq39xllaPWH8y2QqXwog-47" source="iq39xllaPWH8y2QqXwog-25" target="iq39xllaPWH8y2QqXwog-29">
          <mxGeometry width="50" height="50" relative="1" as="geometry">
            <mxPoint x="765" y="250" as="sourcePoint" />
            <mxPoint x="797" y="250" as="targetPoint" />
          </mxGeometry>
        </mxCell>
        <mxCell id="iq39xllaPWH8y2QqXwog-41" value="" style="edgeStyle=orthogonalEdgeStyle;rounded=0;orthogonalLoop=1;jettySize=auto;html=1;exitX=0.5;exitY=1;exitDx=0;exitDy=0;entryX=0.5;entryY=1;entryDx=0;entryDy=0;" edge="1" parent="iq39xllaPWH8y2QqXwog-47" source="iq39xllaPWH8y2QqXwog-29" target="iq39xllaPWH8y2QqXwog-1">
          <mxGeometry relative="1" as="geometry">
            <mxPoint x="447" y="511" as="targetPoint" />
            <Array as="points">
              <mxPoint x="1059" y="401" />
              <mxPoint x="90" y="401" />
            </Array>
          </mxGeometry>
        </mxCell>
        <mxCell id="iq39xllaPWH8y2QqXwog-42" value="&lt;span style=&quot;text-wrap-mode: wrap;&quot;&gt;Data Scientists&lt;/span&gt;" style="shape=umlActor;verticalLabelPosition=bottom;verticalAlign=top;html=1;outlineConnect=0;" vertex="1" parent="iq39xllaPWH8y2QqXwog-47">
          <mxGeometry x="1044" y="56" width="30" height="60" as="geometry" />
        </mxCell>
        <mxCell id="iq39xllaPWH8y2QqXwog-44" value="" style="endArrow=classic;html=1;rounded=0;entryX=0.5;entryY=0;entryDx=0;entryDy=0;exitX=0.918;exitY=0.31;exitDx=0;exitDy=0;exitPerimeter=0;" edge="1" parent="iq39xllaPWH8y2QqXwog-47" source="iq39xllaPWH8y2QqXwog-22" target="iq39xllaPWH8y2QqXwog-29">
          <mxGeometry width="50" height="50" relative="1" as="geometry">
            <mxPoint x="641" y="167" as="sourcePoint" />
            <mxPoint x="685" y="220" as="targetPoint" />
          </mxGeometry>
        </mxCell>
        <mxCell id="iq39xllaPWH8y2QqXwog-45" value="Exporter" style="text;whiteSpace=wrap;html=1;align=center;fontSize=10;" vertex="1" parent="iq39xllaPWH8y2QqXwog-47">
          <mxGeometry x="752" y="274.8" width="40" height="23.2" as="geometry" />
        </mxCell>
        <mxCell id="iq39xllaPWH8y2QqXwog-46" value="" style="endArrow=classic;html=1;rounded=0;exitX=0.5;exitY=0;exitDx=0;exitDy=0;" edge="1" parent="iq39xllaPWH8y2QqXwog-47" source="iq39xllaPWH8y2QqXwog-45">
          <mxGeometry width="50" height="50" relative="1" as="geometry">
            <mxPoint x="656" y="331" as="sourcePoint" />
            <mxPoint x="772" y="241" as="targetPoint" />
          </mxGeometry>
        </mxCell>
      </root>
    </mxGraphModel>
  </diagram>
</mxfile>
